<svg width="24" height="24" xmlns="http://www.w3.org/2000/svg">

 <g>
  <title>background</title>
  <rect fill="none" id="canvas_background" height="402" width="582" y="-1" x="-1"/>
 </g>
 <g>
  <title>Layer 1</title>
  <path fill="#ffffff" id="svg_2" d="m23,10l-1.7,0l-7.4,-7.4c0.1,-0.2 0.1,-0.4 0.1,-0.6c0,-1.1 -0.9,-2 -2,-2s-2,0.9 -2,2c0,0.2 0,0.5 0.1,0.7l-7.3,7.3l-1.8,0c-0.6,0 -1,0.4 -1,1l0,12c0,0.6 0.4,1 1,1l22,0c0.6,0 1,-0.4 1,-1l0,-12c0,-0.6 -0.4,-1 -1,-1zm-11,-9c0.6,0 1,0.4 1,1s-0.4,1 -1,1s-1,-0.4 -1,-1s0.4,-1 1,-1zm-1.3,2.5c0.3,0.3 0.8,0.5 1.3,0.5c0.5,0 1,-0.2 1.4,-0.5l6.5,6.5l-15.7,0l6.5,-6.5zm11.3,18.5l-20,0l0,-10l20,0l0,10z"/>
  <path fill="#ffffff" id="svg_3" d="m5,20c1.1,0 2,-0.9 2,-2l0,-2c0,-1.1 -0.9,-2 -2,-2s-2,0.9 -2,2l0,2c0,1.1 0.9,2 2,2zm-1,-4c0,-0.6 0.4,-1 1,-1s1,0.4 1,1l0,2c0,0.6 -0.4,1 -1,1s-1,-0.4 -1,-1l0,-2z"/>
  <polygon fill="#ffffff" id="svg_4" points="16,20 16,19 14,19 14,18 16,18 16,17 14,17 14,15 16,15 16,14 13,14 13,15 13,20 14,20  "/>
  <polygon fill="#ffffff" id="svg_5" points="18,16 20,20 21,20 21,14 20,14 20,18 18,14 17,14 17,20 18,20  "/>
  <path fill="#ffffff" id="svg_6" d="m9,18l1,0c1.1,0 2,-0.9 2,-2s-0.9,-2 -2,-2l-1,0l-1,0l0,6l1,0l0,-2zm0,-3l1,0c0.6,0 1,0.4 1,1s-0.4,1 -1,1l-1,0l0,-2z"/>
 </g>
</svg>