<svg width="74" height="74" xmlns="http://www.w3.org/2000/svg">

 <g>
  <title>background</title>
  <rect fill="none" id="canvas_background" height="402" width="582" y="-1" x="-1"/>
 </g>
 <g>
  <title>Layer 1</title>
  <path fill="#ffffff" id="svg_2" d="m53.2,12.6l-3.3,0c-1.3,-2.7 -3.3,-4.6 -6,-5.6c-0.4,-3.4 -3.3,-6 -6.8,-6c-3.5,0 -6.4,2.6 -6.8,6c-2.7,1.1 -4.7,3 -6,5.6l-3.3,0c-3.9,0 -7.1,3.2 -7.1,7.1l0,46.1c0,3.9 3.2,7.1 7.1,7.1l32.4,0c3.9,0 7.1,-3.2 7.1,-7.1l0,-46c-0.2,-4 -3.4,-7.2 -7.3,-7.2zm-20.5,-2.2c1,-0.3 1.6,-1.2 1.5,-2.2c0,-0.1 0,-0.2 0,-0.3c-0.1,-1.6 1.2,-2.9 2.8,-2.9c1.6,0 2.9,1.3 2.9,2.9c0,0.1 0,0.2 0,0.3c-0.2,1 0.5,2 1.5,2.2c2.3,0.6 5,2 6,7.2l-20.7,0c0.9,-5.2 3.6,-6.6 6,-7.2zm23.6,55.5c0,1.7 -1.4,3.1 -3.1,3.1l-32.4,0c-1.7,0 -3.1,-1.4 -3.1,-3.1l0,-46.1c0,-1.7 1.4,-3.1 3.1,-3.1l2,0c-0.2,0.9 -0.3,1.8 -0.4,2.8c0,0.6 0.2,1.1 0.5,1.5c0.4,0.4 0.9,0.6 1.5,0.6l25.1,0c0.6,0 1.1,-0.2 1.5,-0.6c0.4,-0.4 0.6,-1 0.5,-1.5c-0.1,-1 -0.2,-1.9 -0.4,-2.8l2,0c1.7,0 3.1,1.4 3.1,3.1l0,46.1l0.1,0z" class="st0"/>
  <path fill="#ffffff" id="svg_3" d="m31.7,27.3l-4.6,4.6l-2.3,-2.3c-0.8,-0.8 -2,-0.8 -2.8,0c-0.8,0.8 -0.8,2 0,2.8l3.7,3.7c0.4,0.4 0.9,0.6 1.4,0.6s1,-0.2 1.4,-0.6l6,-6c0.8,-0.8 0.8,-2 0,-2.8s-2,-0.8 -2.8,0z" class="st0"/>
  <path fill="#ffffff" id="svg_4" d="m50.6,31.4l-13,0c-1.1,0 -2,0.9 -2,2s0.9,2 2,2l13,0c1.1,0 2,-0.9 2,-2s-0.9,-2 -2,-2z" class="st0"/>
  <path fill="#ffffff" id="svg_5" d="m22.9,50.9c0.4,0.4 0.9,0.6 1.4,0.6s1,-0.2 1.4,-0.6l2.1,-2.1l2.1,2.1c0.4,0.4 0.9,0.6 1.4,0.6s1,-0.2 1.4,-0.6c0.8,-0.8 0.8,-2 0,-2.8l-2.1,-2.1l2.1,-2.1c0.8,-0.8 0.8,-2 0,-2.8s-2,-0.8 -2.8,0l-2.1,2.1l-2.1,-2.1c-0.8,-0.8 -2,-0.8 -2.8,0s-0.8,2 0,2.8l2.1,2.1l-2.1,2.1c-0.8,0.7 -0.8,2 0,2.8z" class="st0"/>
  <path fill="#ffffff" id="svg_6" d="m50.6,44.7l-13,0c-1.1,0 -2,0.9 -2,2s0.9,2 2,2l13,0c1.1,0 2,-0.9 2,-2s-0.9,-2 -2,-2z" class="st0"/>
  <path fill="#ffffff" id="svg_7" d="m31.7,54l-4.6,4.6l-2.3,-2.3c-0.8,-0.8 -2,-0.8 -2.8,0s-0.8,2 0,2.8l3.7,3.7c0.4,0.4 0.9,0.6 1.4,0.6s1,-0.2 1.4,-0.6l6,-6c0.8,-0.8 0.8,-2 0,-2.8s-2,-0.8 -2.8,0z" class="st0"/>
  <path fill="#ffffff" id="svg_8" d="m50.6,58.1l-13,0c-1.1,0 -2,0.9 -2,2s0.9,2 2,2l13,0c1.1,0 2,-0.9 2,-2s-0.9,-2 -2,-2z" class="st0"/>
 </g>
</svg>