<svg width="32" height="32" xmlns="http://www.w3.org/2000/svg">
 <title/>

 <g>
  <title>background</title>
  <rect fill="none" id="canvas_background" height="402" width="582" y="-1" x="-1"/>
 </g>
 <g>
  <title>Layer 1</title>
  <path fill="#ffffff" id="svg_1" d="m28,13l-1.41,0a11.34,11.34 0 0 0 -1,-2.36l1,-1a3,3 0 0 0 0,-4.25a3.09,3.09 0 0 0 -4.25,0l-1,1a11.34,11.34 0 0 0 -2.36,-1l0,-1.39a3,3 0 0 0 -3,-3a3,3 0 0 0 -3,3l0,1.41a11.34,11.34 0 0 0 -2.36,1l-1,-1a3.1,3.1 0 0 0 -4.25,0a3,3 0 0 0 0,4.25l1,1a11.34,11.34 0 0 0 -1,2.36l-1.37,0a3,3 0 0 0 -3,3a3,3 0 0 0 3,3l1.41,0a11.34,11.34 0 0 0 1,2.36l-1,1a3,3 0 0 0 0,4.25a3.09,3.09 0 0 0 4.25,0l1,-1a11.34,11.34 0 0 0 2.36,1l0,1.37a3,3 0 0 0 6,0l0,-1.41a11.34,11.34 0 0 0 2.36,-1l1,1a3.09,3.09 0 0 0 4.25,0a3,3 0 0 0 0,-4.25l-1,-1a11.34,11.34 0 0 0 1,-2.36l1.37,0a3,3 0 0 0 0,-6l0,0.02zm0,3.98l-2.2,0a1,1 0 0 0 -1,0.8a9,9 0 0 1 -1.29,3.22a1,1 0 0 0 0.12,1.26l1.56,1.56a1,1 0 0 1 0,1.41a1,1 0 0 1 -1.41,0l-1.56,-1.56a1,1 0 0 0 -1.22,-0.16a9,9 0 0 1 -3.16,1.31a1,1 0 0 0 -0.8,1l0,2.18a1,1 0 0 1 -2,0l0,-2.2a1,1 0 0 0 -0.8,-1a9,9 0 0 1 -3.24,-1.29a1,1 0 0 0 -0.55,-0.17a1,1 0 0 0 -0.71,0.29l-1.52,1.56a1,1 0 0 1 -1.41,0a1,1 0 0 1 0,-1.41l1.56,-1.56a1,1 0 0 0 0.12,-1.22a9,9 0 0 1 -1.31,-3.2a1,1 0 0 0 -1,-0.8l-2.18,0a1,1 0 0 1 -1,-1a1,1 0 0 1 0.31,-0.71a0.93,0.93 0 0 1 0.69,-0.29l2.2,0a1,1 0 0 0 1,-0.8a9,9 0 0 1 1.29,-3.2a1,1 0 0 0 -0.12,-1.26l-1.56,-1.52a1,1 0 0 1 0,-1.41a1,1 0 0 1 0.71,-0.29a1,1 0 0 1 0.7,0.29l1.56,1.56a1,1 0 0 0 1.22,0.12a9,9 0 0 1 3.2,-1.31a1,1 0 0 0 0.8,-1l0,-2.18a1,1 0 0 1 1,-1a1,1 0 0 1 0.71,0.31a0.93,0.93 0 0 1 0.29,0.69l0,2.2a1,1 0 0 0 0.8,1a9,9 0 0 1 3.2,1.29a1,1 0 0 0 1.26,-0.12l1.56,-1.56a1,1 0 0 1 1.41,0a1,1 0 0 1 0.29,0.71a1,1 0 0 1 -0.29,0.7l-1.6,1.56a1,1 0 0 0 -0.12,1.22a9,9 0 0 1 1.31,3.16a1,1 0 0 0 1,0.8l2.18,0a1,1 0 0 1 0,2l0,0.02z"/>
  <path fill="#ffffff" id="svg_2" d="m20.33,13.5a5,5 0 0 0 -1.82,-1.82a4.29,4.29 0 0 0 -1.22,-0.5a4.81,4.81 0 0 0 -2.58,0a4.73,4.73 0 0 0 -1.21,0.5a5,5 0 0 0 -1.82,1.82a4.61,4.61 0 0 0 -0.51,1.22a5,5 0 0 0 0,2.58a4.73,4.73 0 0 0 0.5,1.21a5,5 0 0 0 1.82,1.82a4.29,4.29 0 0 0 1.22,0.5a4.73,4.73 0 0 0 1.29,0.17a5.13,5.13 0 0 0 1.29,-0.17a4.73,4.73 0 0 0 1.21,-0.5a5,5 0 0 0 2.33,-3a5,5 0 0 0 0,-2.58a4.73,4.73 0 0 0 -0.5,-1.25zm-1.43,3.27l0,0a2.8,2.8 0 0 1 -0.3,0.73a2.9,2.9 0 0 1 -1.1,1.1a3.39,3.39 0 0 1 -0.72,0.3a3.06,3.06 0 0 1 -2.27,-0.31a2.9,2.9 0 0 1 -1.1,-1.1a3.39,3.39 0 0 1 -0.3,-0.72a2.91,2.91 0 0 1 -0.11,-0.77a2.56,2.56 0 0 1 0.11,-0.77a2.8,2.8 0 0 1 0.3,-0.73a2.9,2.9 0 0 1 1.1,-1.1a3.39,3.39 0 0 1 0.72,-0.3a2.91,2.91 0 0 1 0.77,-0.1a2.56,2.56 0 0 1 0.77,0.11a2.8,2.8 0 0 1 0.73,0.3a2.9,2.9 0 0 1 1.1,1.1a3.39,3.39 0 0 1 0.3,0.72a3,3 0 0 1 0,1.54z"/>
 </g>
</svg>