<svg width="24" height="24" xmlns="http://www.w3.org/2000/svg">

 <g>
  <title>background</title>
  <rect fill="none" id="canvas_background" height="402" width="582" y="-1" x="-1"/>
 </g>
 <g>
  <title>Layer 1</title>
  <path fill="#ffffff" id="svg_1" d="m19,10.5c1.2,-1.1 2,-2.7 2,-4.5c0,-3.3 -2.7,-6 -6,-6c-3,0 -5.4,2 -5.9,5c0,0 0,0 0,0c0,0 -0.1,0 -0.1,0c-3.3,0 -6,2.7 -6,6c0,1.8 0.8,3.4 2,4.5c-1.8,0.4 -3.5,1.5 -5,3.5l0,4c0,0.6 0.4,1 1,1l16,0c0.6,0 1,-0.4 1,-1l0,-4l5,0c0.6,0 1,-0.4 1,-1l0,-4c-1.4,-2 -3.2,-3.1 -5,-3.5zm-4,-8.5c2.2,0 4,1.8 4,4s-1.7,4 -4,4c0,0 0,0 0,0l0,0c0,-2.1 -1.9,-3.9 -3.9,-4.6c0.3,-1.9 1.9,-3.4 3.9,-3.4zm-10,9c0,-2.2 1.8,-4 4,-4s4,1.8 4,4s-1.8,4 -4,4s-4,-1.8 -4,-4zm11,11l-14,0l0,-2c0,0 2,-3 7,-3s7,3 7,3l0,2zm6,-5l-5.9,0c-1,-0.8 -2,-1.3 -3.1,-1.5c1,-0.9 1.7,-2.1 1.9,-3.5c0,0 0,0 0,0c0,0 0.1,0 0.1,0c5,0 7,3 7,3l0,2z"/>
 </g>
</svg>